<svg xmlns:xlink="http://www.w3.org/1999/xlink" xmlns="http://www.w3.org/2000/svg" version="1.1" viewBox="0 0 240 240" height="240px" width="240px">
    <title>编组 9</title>
    <defs>
        <linearGradient id="linearGradient-1" y2="79.4796384%" x2="67.0870583%" y1="23.9304737%" x1="5.83583948%">
            <stop offset="0%" stop-color="#F3F4F6"></stop>
            <stop offset="100%" stop-color="#E4E6E9"></stop>
        </linearGradient>
    </defs>
    <g fill-rule="evenodd" fill="none" stroke-width="1" stroke="none" id="页面-1">
        <g transform="translate(-1114.000000, -289.000000)" id="画板">
            <g transform="translate(1114.000000, 289.000000)" id="编组-9">
                <path fill-rule="nonzero" fill="#666666" id="暂无加入班级" d="M66.08,164.780578 L66.08,163.240578 C67.1,163.140578 68.08,163.040578 69.02,162.960578 L69.02,161.780578 C68.1,161.860578 67.12,161.940578 66.08,162.020578 L66.08,160.440578 L69.2,160.440578 L69.2,159.260578 L66.08,159.260578 L66.08,157.940578 L64.76,157.940578 L64.76,159.260578 L62.44,159.260578 C62.94,158.600578 63.42,157.840578 63.86,157.000578 L69.34,157.000578 L69.34,155.720578 L64.46,155.720578 C64.62,155.360578 64.76,155.000578 64.9,154.640578 L63.46,154.400578 C63.3,154.840578 63.12,155.280578 62.94,155.720578 L60.16,155.720578 L60.16,157.000578 L62.3,157.000578 C61.82,157.900578 61.28,158.660578 60.72,159.300578 L61.04,160.440578 L64.76,160.440578 L64.76,162.100578 C63.4,162.180578 61.94,162.240578 60.42,162.320578 L60.6,163.600578 C62.04,163.520578 63.44,163.420578 64.76,163.340578 L64.76,164.780578 L66.08,164.780578 Z M70.2,164.840578 C71.06,163.600578 71.6,162.140578 71.82,160.460578 L74.42,160.460578 L74.42,164.800578 L75.8,164.800578 L75.8,160.460578 L77.92,160.460578 L77.92,159.200578 L71.92,159.200578 L71.92,157.120578 C74.08,156.880578 75.88,156.420578 77.36,155.780578 L76.44,154.700578 C75.04,155.340578 73.08,155.780578 70.6,156.020578 L70.6,159.160578 C70.56,160.960578 70.08,162.500578 69.2,163.800578 L70.2,164.840578 Z M64.04,172.900578 L64.04,172.120578 L74.2,172.120578 L74.2,172.900578 L75.68,172.900578 L75.68,165.380578 L62.56,165.380578 L62.56,172.900578 L64.04,172.900578 Z M74.2,168.160578 L64.04,168.160578 L64.04,166.600578 L74.2,166.600578 L74.2,168.160578 Z M74.2,170.880578 L64.04,170.880578 L64.04,169.320578 L74.2,169.320578 L74.2,170.880578 Z M81.34,172.840578 C84.12,171.640578 86.12,169.940578 87.36,167.780578 C88.04,166.500578 88.54,165.000578 88.86,163.260578 L90.48,163.260578 L90.48,170.540578 C90.48,171.900578 91.12,172.580578 92.44,172.580578 L95.68,172.580578 C96.52,172.580578 97.12,172.400578 97.5,172.040578 C97.94,171.600578 98.24,170.420578 98.4,168.460578 L97.04,168.020578 C96.94,169.580578 96.76,170.500578 96.48,170.820578 C96.26,171.080578 95.9,171.220578 95.42,171.220578 L92.88,171.220578 C92.24,171.220578 91.92,170.880578 91.92,170.240578 L91.92,163.260578 L98.12,163.260578 L98.12,161.880578 L89.08,161.880578 C89.22,160.800578 89.3,159.620578 89.34,158.380578 L89.34,157.040578 L96.5,157.040578 L96.5,155.640578 L82.14,155.640578 L82.14,157.040578 L87.88,157.040578 L87.88,158.380578 C87.86,159.620578 87.78,160.800578 87.62,161.880578 L80.8,161.880578 L80.8,163.260578 L87.38,163.260578 C87.12,164.520578 86.76,165.660578 86.28,166.660578 C85.2,168.700578 83.3,170.320578 80.54,171.560578 L81.34,172.840578 Z M101.76,172.980578 C104.32,170.260578 105.64,165.960578 105.72,160.060578 L108.38,160.060578 C108.34,165.420578 108.26,168.640578 108.14,169.680578 C107.98,170.820578 107.38,171.400578 106.36,171.400578 C105.88,171.400578 105.32,171.360578 104.68,171.320578 L105.04,172.640578 C105.76,172.680578 106.26,172.720578 106.56,172.720578 C108.32,172.720578 109.3,171.880578 109.5,170.240578 C109.689474,168.838473 109.789197,165.300301 109.799169,159.626063 L109.8,158.660578 L109.8,158.660578 L105.72,158.660578 L105.72,154.620578 L104.28,154.620578 L104.28,158.660578 L101.08,158.660578 L101.08,160.060578 L104.28,160.060578 C104.22,165.540578 103.02,169.540578 100.7,172.040578 L101.76,172.980578 Z M113.02,172.600578 L113.02,171.260578 L116.78,171.260578 L116.78,172.600578 L118.18,172.600578 L118.18,157.540578 L111.64,157.540578 L111.64,172.600578 L113.02,172.600578 Z M116.78,169.880578 L113.02,169.880578 L113.02,158.920578 L116.78,158.920578 L116.78,169.880578 Z M122.08,172.620578 C126.28,169.900578 129.04,165.980578 130.36,160.880578 C130.46,161.120578 130.56,161.400578 130.68,161.720578 C132.74,167.000578 135.38,170.640578 138.62,172.600578 L139.52,171.440578 C136.36,169.460578 133.86,166.080578 131.98,161.300578 C130.74,158.060578 129.24,155.800578 127.46,154.560578 L126.26,155.320578 C127.54,156.240578 128.64,157.520578 129.56,159.200578 C128.28,164.520578 125.5,168.600578 121.22,171.400578 L122.08,172.620578 Z M148.56,172.840578 C151.36,170.880578 152.78,167.760578 152.84,163.480578 L152.84,154.540578 L151.46,154.540578 L151.46,163.480578 C151.42,167.360578 150.1,170.160578 147.5,171.900578 L148.56,172.840578 Z M160.06,172.160578 L160.06,170.820578 L157.22,170.820578 L157.22,164.120578 L159.46,164.120578 L159.46,162.800578 L157.22,162.800578 L157.22,157.100578 L159.76,157.100578 L159.76,155.780578 L153.5,155.780578 L153.5,157.100578 L155.84,157.100578 L155.84,162.800578 L153.72,162.800578 L153.72,164.120578 L155.84,164.120578 L155.84,170.820578 L152.82,170.820578 L152.82,172.160578 L160.06,172.160578 Z M142.14,171.640578 C144.3,171.060578 146.32,170.340578 148.18,169.500578 L148.18,168.060578 C147.38,168.440578 146.56,168.800578 145.74,169.120578 L145.74,163.760578 L147.64,163.760578 L147.64,162.420578 L145.74,162.420578 L145.74,157.280578 L147.92,157.280578 L147.92,155.940578 L142.02,155.940578 L142.02,157.280578 L144.34,157.280578 L144.34,162.420578 L142.2,162.420578 L142.2,163.760578 L144.34,163.760578 L144.34,169.600578 C143.5,169.840578 142.66,170.060578 141.78,170.260578 L142.14,171.640578 Z M148.82,166.180578 C149.66,164.860578 150.08,162.780578 150.1,159.980578 L150.1,157.860578 L148.78,157.860578 L148.78,159.980578 C148.76,162.420578 148.44,164.180578 147.8,165.280578 L148.82,166.180578 Z M163.02,167.520578 C164.96,167.280578 167,166.860578 169.12,166.220578 L169.12,164.920578 C167.68,165.360578 166.22,165.720578 164.78,165.980578 C166.02,164.600578 167.56,162.280578 169.44,159.040578 L168.18,158.580578 C167.76,159.320578 167.36,160.020578 166.98,160.700578 C166.02,160.860578 165.06,160.980578 164.1,161.080578 C165.18,159.600578 166.24,157.600578 167.28,155.080578 L165.92,154.540578 C165.08,156.820578 164.08,158.860578 162.94,160.640578 C162.76,160.900578 162.56,161.080578 162.34,161.160578 L162.7,162.480578 C163.86,162.340578 165.02,162.180578 166.18,162.000578 C165.06,163.800578 164.1,165.060578 163.3,165.820578 C163.12,165.980578 162.9,166.120578 162.64,166.220578 L163.02,167.520578 Z M171.72,172.920578 C173.44,172.080578 174.92,171.040578 176.12,169.760578 C177.12,170.920578 178.34,171.960578 179.74,172.880578 L180.64,171.680578 C179.24,170.800578 178.02,169.820578 176.98,168.700578 C178.42,166.800578 179.34,164.460578 179.76,161.700578 L179.76,160.900578 L177.22,160.900578 C177.54,159.620578 177.86,158.080578 178.18,156.280578 L178.18,155.380578 L169.4,155.380578 L169.4,156.740578 L171.38,156.740578 L171.38,157.820578 C171.34,164.280578 170.02,168.960578 167.42,171.880578 L168.48,172.820578 C170.5,170.540578 171.82,167.280578 172.42,163.060578 C173.04,165.100578 173.96,166.940578 175.16,168.560578 C174.02,169.760578 172.6,170.780578 170.92,171.600578 L171.72,172.920578 Z M176,167.560578 C174.32,165.420578 173.22,162.880578 172.72,159.960578 C172.76,159.280578 172.78,158.560578 172.78,157.820578 L172.78,156.740578 L176.7,156.740578 C176.28,159.120578 175.9,160.920578 175.54,162.160578 L178.32,162.160578 C177.92,164.220578 177.16,166.020578 176,167.560578 Z M162.38,171.760578 C164.62,171.340578 166.6,170.760578 168.36,170.040578 L168.36,168.680578 C166.6,169.380578 164.54,169.940578 162.2,170.360578 L162.38,171.760578 Z"></path>
                <path fill-rule="nonzero" fill="#999999" id="快点去加入自己的班级吧！" d="M55.188,200.040578 C56.784,199.128578 57.852,197.724578 58.392,195.804578 C59.148,197.508578 60.348,198.912578 61.98,200.028578 L62.568,199.356578 C60.948,198.348578 59.76,197.028578 59.016,195.396578 L62.292,195.396578 L62.292,194.556578 L61.356,194.556578 L61.356,190.932578 L58.8,190.932578 L58.8,189.120578 L57.96,189.120578 L57.96,190.932578 L55.824,190.932578 L55.824,191.736578 L57.96,191.736578 L57.96,192.780578 C57.96,193.404578 57.912,194.004578 57.828,194.556578 L55.332,194.556578 L55.332,195.396578 L57.66,195.396578 C57.204,197.208578 56.196,198.516578 54.66,199.332578 L55.188,200.040578 Z M54.048,200.052578 L54.048,189.132578 L53.196,189.132578 L53.196,200.052578 L54.048,200.052578 Z M55.116,193.956578 L55.824,193.788578 C55.56,192.792578 55.272,191.916578 54.936,191.148578 L54.288,191.352578 C54.624,192.192578 54.9,193.056578 55.116,193.956578 Z M52.164,194.892578 C52.416,193.812578 52.56,192.660578 52.596,191.460578 L51.912,191.412578 C51.876,192.564578 51.72,193.656578 51.456,194.688578 L52.164,194.892578 Z M60.516,194.556578 L58.656,194.556578 C58.752,193.944578 58.8,193.296578 58.8,192.600578 L58.8,191.736578 L60.516,191.736578 L60.516,194.556578 Z M73.344,196.476578 L73.344,192.624578 L69.516,192.624578 L69.516,191.100578 L74.172,191.100578 L74.172,190.284578 L69.516,190.284578 L69.516,189.120578 L68.664,189.120578 L68.664,192.624578 L65.4,192.624578 L65.4,196.476578 L73.344,196.476578 Z M72.48,195.672578 L66.264,195.672578 L66.264,193.440578 L72.48,193.440578 L72.48,195.672578 Z M73.992,200.124578 L74.712,199.620578 C74.304,198.876578 73.728,198.000578 72.96,196.992578 L72.264,197.436578 C72.996,198.420578 73.572,199.308578 73.992,200.124578 Z M64.536,200.064578 C65.136,199.296578 65.652,198.396578 66.108,197.352578 L65.376,197.004578 C64.944,197.988578 64.428,198.840578 63.828,199.548578 L64.536,200.064578 Z M70.584,200.100578 L71.436,199.908578 C71.172,198.948578 70.86,198.048578 70.5,197.232578 L69.684,197.400578 C70.044,198.180578 70.344,199.080578 70.584,200.100578 Z M67.776,200.124578 L68.64,199.932578 C68.448,199.008578 68.232,198.144578 67.992,197.352578 L67.188,197.520578 C67.416,198.276578 67.608,199.140578 67.776,200.124578 Z M85.74,200.184578 L86.472,199.668578 C85.824,198.492578 84.888,197.124578 83.664,195.540578 L82.968,195.984578 C83.604,196.824578 84.18,197.628578 84.684,198.396578 C83.532,198.540578 81.492,198.720578 78.588,198.948578 C79.464,198.096578 80.328,196.776578 81.18,194.976578 L86.904,194.976578 L86.904,194.136578 L82.02,194.136578 L82.02,191.868578 L86.136,191.868578 L86.136,191.028578 L82.02,191.028578 L82.02,189.120578 L81.132,189.120578 L81.132,191.028578 L76.992,191.028578 L76.992,191.868578 L81.132,191.868578 L81.132,194.136578 L76.236,194.136578 L76.236,194.976578 L80.22,194.976578 C79.14,197.136578 78.084,198.492578 77.052,199.056578 L77.208,199.764578 C79.704,199.620578 82.344,199.404578 85.128,199.116578 C85.344,199.476578 85.548,199.836578 85.74,200.184578 Z M88.944,200.148578 C90.48,198.516578 91.272,195.936578 91.32,192.396578 L92.916,192.396578 C92.892,195.612578 92.844,197.544578 92.772,198.168578 C92.676,198.852578 92.316,199.200578 91.704,199.200578 C91.416,199.200578 91.08,199.176578 90.696,199.152578 L90.912,199.944578 C91.344,199.968578 91.644,199.992578 91.824,199.992578 C92.88,199.992578 93.468,199.488578 93.588,198.504578 C93.6994285,197.680007 93.7591224,195.62415 93.7670816,192.337007 L93.768,191.556578 L93.768,191.556578 L91.32,191.556578 L91.32,189.132578 L90.456,189.132578 L90.456,191.556578 L88.536,191.556578 L88.536,192.396578 L90.456,192.396578 C90.42,195.684578 89.7,198.084578 88.308,199.584578 L88.944,200.148578 Z M95.7,199.920578 L95.7,199.116578 L97.956,199.116578 L97.956,199.920578 L98.796,199.920578 L98.796,190.884578 L94.872,190.884578 L94.872,199.920578 L95.7,199.920578 Z M97.956,198.288578 L95.7,198.288578 L95.7,191.712578 L97.956,191.712578 L97.956,198.288578 Z M101.136,199.932578 C103.656,198.300578 105.312,195.948578 106.104,192.888578 C106.164,193.032578 106.224,193.200578 106.296,193.392578 C107.532,196.560578 109.116,198.744578 111.06,199.920578 L111.6,199.224578 C109.704,198.036578 108.204,196.008578 107.076,193.140578 C106.332,191.196578 105.432,189.840578 104.364,189.096578 L103.644,189.552578 C104.412,190.104578 105.072,190.872578 105.624,191.880578 C104.856,195.072578 103.188,197.520578 100.62,199.200578 L101.136,199.932578 Z M115.284,200.088578 L115.284,199.344578 L121.596,199.344578 L121.596,200.088578 L122.472,200.088578 L122.472,190.524578 L117.876,190.524578 C118.116,190.116578 118.308,189.660578 118.44,189.180578 L117.564,189.060578 C117.444,189.564578 117.24,190.044578 116.976,190.524578 L114.408,190.524578 L114.408,200.088578 L115.284,200.088578 Z M121.596,193.140578 L115.284,193.140578 L115.284,191.352578 L121.596,191.352578 L121.596,193.140578 Z M121.596,195.768578 L115.284,195.768578 L115.284,193.932578 L121.596,193.932578 L121.596,195.768578 Z M121.596,198.516578 L115.284,198.516578 L115.284,196.560578 L121.596,196.560578 L121.596,198.516578 Z M133.98,199.704578 C134.748,199.704578 135.264,199.512578 135.516,199.140578 C135.78,198.756578 135.96,197.916578 136.08,196.632578 L135.24,196.356578 C135.18,197.352578 135.072,198.012578 134.928,198.348578 C134.76,198.696578 134.4,198.876578 133.836,198.876578 L128.1,198.876578 C127.476,198.852578 127.164,198.576578 127.164,198.024578 L127.164,194.532578 L134.748,194.532578 L134.748,189.732578 L126.132,189.732578 L126.132,190.572578 L133.884,190.572578 L133.884,193.692578 L126.288,193.692578 L126.288,198.324578 C126.288,199.236578 126.768,199.704578 127.752,199.704578 L133.98,199.704578 Z M146.208,199.956578 C147.216,199.956578 147.768,199.488578 147.888,198.576578 C147.999724,197.70513 148.059439,195.502238 148.067144,191.987272 L148.068,191.184578 L148.068,191.184578 L144.24,191.184578 C144.456,190.560578 144.624,189.888578 144.768,189.180578 L143.916,189.072578 C143.604,190.776578 143.04,192.216578 142.2,193.392578 L142.716,194.076578 C143.184,193.464578 143.58,192.780578 143.916,192.024578 L147.216,192.024578 C147.192,195.480578 147.144,197.556578 147.072,198.228578 C146.976,198.840578 146.652,199.152578 146.088,199.152578 C145.716,199.152578 145.284,199.140578 144.78,199.116578 L144.984,199.908578 C145.56,199.932578 145.968,199.956578 146.208,199.956578 Z M138.84,199.704578 L138.84,198.672578 L141.024,198.672578 L141.024,199.356578 L141.864,199.356578 L141.864,191.172578 L139.932,191.172578 C140.172,190.572578 140.352,189.912578 140.496,189.204578 L139.632,189.084578 C139.524,189.804578 139.356,190.500578 139.116,191.172578 L138,191.172578 L138,199.704578 L138.84,199.704578 Z M141.024,194.460578 L138.84,194.460578 L138.84,191.988578 L141.024,191.988578 L141.024,194.460578 Z M145.236,197.052578 L145.92,196.572578 C145.464,195.828578 144.816,194.952578 143.952,193.956578 L143.256,194.388578 C144.084,195.372578 144.744,196.260578 145.236,197.052578 Z M141.024,197.868578 L138.84,197.868578 L138.84,195.240578 L141.024,195.240578 L141.024,197.868578 Z M153.888,200.064578 C155.568,198.888578 156.42,197.016578 156.456,194.448578 L156.456,189.084578 L155.628,189.084578 L155.628,194.448578 C155.604,196.776578 154.812,198.456578 153.252,199.500578 L153.888,200.064578 Z M160.788,199.656578 L160.788,198.852578 L159.084,198.852578 L159.084,194.832578 L160.428,194.832578 L160.428,194.040578 L159.084,194.040578 L159.084,190.620578 L160.608,190.620578 L160.608,189.828578 L156.852,189.828578 L156.852,190.620578 L158.256,190.620578 L158.256,194.040578 L156.984,194.040578 L156.984,194.832578 L158.256,194.832578 L158.256,198.852578 L156.444,198.852578 L156.444,199.656578 L160.788,199.656578 Z M150.036,199.344578 C151.332,198.996578 152.544,198.564578 153.66,198.060578 L153.66,197.196578 C153.18,197.424578 152.688,197.640578 152.196,197.832578 L152.196,194.616578 L153.336,194.616578 L153.336,193.812578 L152.196,193.812578 L152.196,190.728578 L153.504,190.728578 L153.504,189.924578 L149.964,189.924578 L149.964,190.728578 L151.356,190.728578 L151.356,193.812578 L150.072,193.812578 L150.072,194.616578 L151.356,194.616578 L151.356,198.120578 C150.852,198.264578 150.348,198.396578 149.82,198.516578 L150.036,199.344578 Z M154.044,196.068578 C154.548,195.276578 154.8,194.028578 154.812,192.348578 L154.812,191.076578 L154.02,191.076578 L154.02,192.348578 C154.008,193.812578 153.816,194.868578 153.432,195.528578 L154.044,196.068578 Z M162.564,196.872578 C163.728,196.728578 164.952,196.476578 166.224,196.092578 L166.224,195.312578 C165.36,195.576578 164.484,195.792578 163.62,195.948578 C164.364,195.120578 165.288,193.728578 166.416,191.784578 L165.66,191.508578 C165.408,191.952578 165.168,192.372578 164.94,192.780578 C164.364,192.876578 163.788,192.948578 163.212,193.008578 C163.86,192.120578 164.496,190.920578 165.12,189.408578 L164.304,189.084578 C163.8,190.452578 163.2,191.676578 162.516,192.744578 C162.408,192.900578 162.288,193.008578 162.156,193.056578 L162.372,193.848578 C163.068,193.764578 163.764,193.668578 164.46,193.560578 C163.788,194.640578 163.212,195.396578 162.732,195.852578 C162.624,195.948578 162.492,196.032578 162.336,196.092578 L162.564,196.872578 Z M167.784,200.112578 C168.816,199.608578 169.704,198.984578 170.424,198.216578 C171.024,198.912578 171.756,199.536578 172.596,200.088578 L173.136,199.368578 C172.296,198.840578 171.564,198.252578 170.94,197.580578 C171.804,196.440578 172.356,195.036578 172.608,193.380578 L172.608,192.900578 L171.084,192.900578 C171.276,192.132578 171.468,191.208578 171.66,190.128578 L171.66,189.588578 L166.392,189.588578 L166.392,190.404578 L167.58,190.404578 L167.58,191.052578 C167.556,194.928578 166.764,197.736578 165.204,199.488578 L165.84,200.052578 C167.052,198.684578 167.844,196.728578 168.204,194.196578 C168.576,195.420578 169.128,196.524578 169.848,197.496578 C169.164,198.216578 168.312,198.828578 167.304,199.320578 L167.784,200.112578 Z M170.352,196.896578 C169.344,195.612578 168.684,194.088578 168.384,192.336578 C168.408,191.928578 168.42,191.496578 168.42,191.052578 L168.42,190.404578 L170.772,190.404578 C170.52,191.832578 170.292,192.912578 170.076,193.656578 L171.744,193.656578 C171.504,194.892578 171.048,195.972578 170.352,196.896578 Z M162.18,199.416578 C163.524,199.164578 164.712,198.816578 165.768,198.384578 L165.768,197.568578 C164.712,197.988578 163.476,198.324578 162.072,198.576578 L162.18,199.416578 Z M183.852,199.896578 C184.416,199.872578 184.788,199.584578 184.968,199.032578 C185.088,198.660578 185.172,198.060578 185.244,197.220578 L184.44,196.956578 C184.38,197.844578 184.308,198.408578 184.212,198.636578 C184.092,198.912578 183.888,199.056578 183.6,199.068578 L180.684,199.068578 C180.228,199.068578 180,198.792578 180,198.264578 L180,195.048578 L184.632,195.048578 L184.632,189.672578 L179.16,189.672578 L179.16,198.564578 C179.16,199.452578 179.556,199.896578 180.36,199.896578 L183.852,199.896578 Z M175.764,198.948578 L175.764,198.048578 L177.324,198.048578 L177.324,198.696578 L178.164,198.696578 L178.164,190.080578 L174.9,190.080578 L174.9,198.948578 L175.764,198.948578 Z M181.464,194.244578 L180,194.244578 L180,190.476578 L181.464,190.476578 L181.464,194.244578 Z M183.792,194.244578 L182.268,194.244578 L182.268,190.476578 L183.792,190.476578 L183.792,194.244578 Z M177.324,197.208578 L175.764,197.208578 L175.764,190.920578 L177.324,190.920578 L177.324,197.208578 Z M189.54,196.596578 L189.732,190.332578 L188.616,190.332578 L188.796,196.596578 L189.54,196.596578 Z M189.168,198.900578 C189.372,198.900578 189.552,198.828578 189.696,198.696578 C189.828,198.564578 189.9,198.396578 189.9,198.180578 C189.9,197.976578 189.828,197.808578 189.696,197.676578 C189.552,197.532578 189.372,197.472578 189.168,197.472578 C188.964,197.472578 188.796,197.532578 188.652,197.676578 C188.508,197.808578 188.448,197.976578 188.448,198.180578 C188.448,198.384578 188.508,198.552578 188.652,198.696578 C188.796,198.828578 188.964,198.900578 189.168,198.900578 Z"></path>
                <g transform="translate(83.000000, 36.900578)" id="编组-46">
                    <path fill="url(#linearGradient-1)" id="形状结合" d="M35.1502003,0 C38.7732148,0 43.4315941,5.14446755 49.125338,15.4334026 C54.1393983,13.258099 59.659548,12.5644899 65.6858632,13.3532344 C73.1191052,18.6500652 69.9760044,64.5621442 36.1009693,64.5621442 C35.3654013,64.5773136 34.8367406,64.5811059 34.5149873,64.5735212 L34.4850127,64.5735212 C34.1632594,64.5811059 33.6345987,64.5773136 32.8990307,64.5621442 C-0.976004437,64.5621442 -4.11910518,18.6500652 3.31413679,13.3532344 C9.39868696,12.5568679 14.9672418,13.2716428 20.0198012,15.4975591 C26.4763335,5.16581179 31.5196776,0 35.1502003,0 Z"></path>
                    <rect rx="3.13636364" height="26.9072165" width="6.27272727" y="60.0927835" x="31.3636364" fill="#E4E6E9" id="矩形"></rect>
                    <path stroke-linecap="round" stroke-width="6.27835052" stroke="#E4E6E9" id="路径" d="M24.9332989,79.0855866 C20.9603076,75.1090336 15.4716712,72.6494845 9.40909091,72.6494845"></path>
                    <path transform="translate(53.015351, 75.867536) scale(-1, 1) translate(-53.015351, -75.867536)" stroke-linecap="round" stroke-width="6.27835052" stroke="#E4E6E9" id="路径备份" d="M60.7774547,79.0855866 C56.8044634,75.1090336 51.3158271,72.6494845 45.2532468,72.6494845"></path>
                    <path fill="#D8D8D8" id="星形" d="M34.0519481,43.0515464 L27.2331931,46.6395917 C26.79483,46.8702594 26.2524734,46.701889 26.0218056,46.2635259 C25.9299211,46.0889076 25.8981839,45.8888622 25.9315104,45.6943792 L27.2339845,38.0935652 L27.2339845,38.0935652 L21.7158771,32.709918 C21.3613199,32.3640004 21.3543162,31.7961533 21.7002338,31.4415961 C21.8378567,31.3005361 22.0181077,31.20873 22.2131294,31.1803662 L29.8382148,30.0713832 L29.8382148,30.0713832 L33.2475179,23.1571878 C33.4665841,22.7129134 34.004328,22.530346 34.4486025,22.7494121 C34.6257108,22.836742 34.7690483,22.9800796 34.8563782,23.1571878 L38.2656813,30.0713832 L38.2656813,30.0713832 L45.8907667,31.1803662 C46.3809576,31.251659 46.7205417,31.7068315 46.6492489,32.1970224 C46.6208852,32.3920442 46.5290791,32.5722952 46.388019,32.709918 L40.8699116,38.0935652 L40.8699116,38.0935652 L42.1723857,45.6943792 C42.256049,46.182611 41.9280814,46.6462236 41.4398497,46.7298869 C41.2453666,46.7632134 41.0453212,46.7314762 40.870703,46.6395917 L34.0519481,43.0515464 L34.0519481,43.0515464 Z"></path>
                </g>
                <g transform="translate(37.000000, 60.900578)" id="编组-8备份-2">
                    <polygon points="0 1.63596624 5.47531242 6.50466243 27 0" fill="#E4E6E9" id="路径-8"></polygon>
                    <polygon points="8.43865059 9.19451538 27 0 18.6927303 18" fill="#E4E6E9" id="路径-9"></polygon>
                    <polygon points="5.47531242 6.50466243 5.03483634 13.9835549 8.5151278 9.16853226 27 -7.76243231e-16" fill="#D7D8DA" id="路径-10"></polygon>
                    <polygon points="5.03483634 13.9835549 11.1959766 11.4711432 8.42077931 9.19234846" fill="#DEE0E4" id="路径-11"></polygon>
                </g>
                <g transform="translate(162.000000, 81.900578)" id="编组-8备份-4">
                    <polygon points="0 1.90862728 6.48925917 7.58877283 32 0" fill="#E4E6E9" id="路径-8"></polygon>
                    <polygon points="10.0013637 10.7269346 32 0 22.154347 21" fill="#E4E6E9" id="路径-9"></polygon>
                    <polygon points="6.48925917 7.58877283 5.96721344 16.3141474 10.0920033 10.696621 32 -9.05617103e-16" fill="#D7D8DA" id="路径-10"></polygon>
                    <polygon points="5.96721344 16.3141474 13.2693056 13.3830004 9.98018288 10.7244065" fill="#DEE0E4" id="路径-11"></polygon>
                </g>
            </g>
        </g>
    </g>
</svg>